<svg xmlns="http://www.w3.org/2000/svg" viewBox="0 0 99.99994 100.00006"><title>Profile 7</title><path d="M99.99851,49.99862a49.86657,49.86657,0,0,1-16.6344,37.23981c-.07307.06566-.14613.13137-.219.18978-.64241.5693-1.29925,1.124-1.9782,1.65685v.00731a50.00559,50.00559,0,0,1-62.08564.2044v-.00731c-.562-.44523-1.11678-.89781-1.6569-1.36492-.08037-.06571-.15325-.13138-.23362-.19709A49.99877,49.99877,0,1,1,99.99851,49.99862Z" fill="#f0ebff"/><circle cx="49.63989" cy="30.72346" r="19.32926" fill="#a4247b"/><circle cx="39.07698" cy="44.97028" r="13.99207" fill="#a4247b"/><circle cx="61.18867" cy="44.97028" r="13.99207" fill="#a4247b"/><path d="M39.30174,70.91432c0-13.20178,9.41653-23.90394,21.03242-23.90394,10.92632,0,19.90666,9.46923,20.93437,21.581a2.12522,2.12522,0,0,1-2.10542,2.323H21.10254a2.12522,2.12522,0,0,1-2.10542-2.323C20.02484,56.47961,29.00518,47.01038,39.9315,47.01038c11.61588,0,21.03241,10.70216,21.03241,23.90394" fill="#a4247b"/><path d="M81.15875,89.088v.00731a50.00575,50.00575,0,0,1-62.08582.20435v-.00731L21.55471,88.015c.05115-.02918.10942-.05836.16056-.08758.5109-.26276,1.00718-.54012,1.50365-.83937.17517-.09489.35034-.20439.52551-.31389.24075-.13864.47437-.29194.708-.44524.23362-.146.45975-.29193.68606-.45984.23362-.14595.45994-.30655.68607-.47441A34.70253,34.70253,0,0,0,31.912,79.84c.66415-.7737,1.29926-1.56927,1.89052-2.40137a35.12568,35.12568,0,0,0,1.93418-3.00721,33.68786,33.68786,0,0,0,2.21894-4.62762c.39418-1.00723.73721-2.04373,1.03641-3.08749a1.03784,1.03784,0,0,0,.03653-.11677c.095-.31385.17517-.62775.25554-.9416.05827-.19705.10942-.40875.15325-.6131.05115-.2117.0948-.42336.13864-.635.07306-.29929.13134-.59853.18248-.90508.0073-.0073.0073-.0073,0-.01461.05114-.23358.095-.47446.13133-.71529L41.05047,55.724l.2117-1.29195.219-1.37948H59.13755l.438,2.67143,1.16774,7.05092c.03653.24083.08037.47441.13133.71529v.00731c.18978,1.05837.438,2.09482.7226,3.11666a34.60323,34.60323,0,0,0,5.23355,10.82452c.59126.82479,1.21888,1.62767,1.89034,2.40137a33.864,33.864,0,0,0,4.759,4.55465c.43071.35034.86854.67881,1.32117,1,.45263.32846.91238.635,1.37962.93425.27.17517.54.35039.8101.51095.20439.12407.40879.24818.61318.365.30651.18248.62762.35765.94143.52556.17535.10215.35783.18973.53282.28462Z" fill="#f98bd5"/><path d="M58.40765,66.17621c-.32843.71529-4.10947,8.518-12.6201,9.89752a16.54553,16.54553,0,0,1-10.05082-1.64229,33.68786,33.68786,0,0,0,2.21894-4.62762c.39418-1.00723.73721-2.04373,1.03641-3.08749a1.03784,1.03784,0,0,0,.03653-.11677c.0875-.31385.17517-.62044.25554-.9416.05827-.19705.10942-.40875.15325-.6131.05115-.2117.10211-.42336.13864-.635.07306-.29929.13134-.59853.18248-.90508.0073-.0073.0073-.0073,0-.01461.05114-.23358.095-.47446.13133-.71529L41.05047,55.724l.2117-1.29195H56.22523l1.27,7.60565A36.04689,36.04689,0,0,0,58.40765,66.17621Z" fill="#d4299e"/><path d="M78.548,87.731a50.0093,50.0093,0,0,1-56.83036.19709c.51089-.2628,1.00718-.54016,1.50364-.83941.175-.09489.35034-.20435.52552-.31385.24074-.13868.47436-.292.708-.44523.23344-.146.45976-.292.68607-.45985.23362-.146.45976-.30659.68607-.47445a34.703,34.703,0,0,0,6.08748-5.55458c.66415-.77369,1.29925-1.56931,1.89052-2.40137A39.082,39.082,0,0,0,40.6952,79.848a39.8959,39.8959,0,0,0,26.138-2.40868c.59109.82475,1.21889,1.62768,1.89034,2.40137a33.866,33.866,0,0,0,4.759,4.55461c.43071.35034.86855.67881,1.32118,1,.45245.32846.91238.635,1.37944.9343.27015.17517.54012.35034.81027.5109.2044.12411.40879.24818.613.365C77.91308,87.3879,78.2342,87.56311,78.548,87.731Z" fill="#fff"/><path d="M79.08289,88.01211,81.163,89.08505v.0073a50.00557,50.00557,0,0,1-62.08565.2044v-.00731L21.559,88.01211c.562-.292,1.11678-.59853,1.6642-.927.17517-.1022.35034-.20435.52552-.31385.23361-.146.47454-.292.708-.44523.22632-.146.45994-.29929.68607-.45985.23362-.15329.45993-.31385.68625-.47445a34.82764,34.82764,0,0,0,6.06538-5.55458h.02922a39.87181,39.87181,0,0,0,36.78736,0h.029a35.03483,35.03483,0,0,0,4.74438,4.55461c.43071.34308.876.6788,1.32118,1,.45262.32116.91238.635,1.37962.9343.27.17517.54012.35034.81009.51094.2044.12407.40879.24814.61319.365C78.09014,87.48655,78.58661,87.75661,79.08289,88.01211Z" fill="#ffc63d"/><path d="M50.31957,69.08137h0A12.76261,12.76261,0,0,1,37.55693,56.31876V28.66637c0-7.0486,6.24017-4.56783,13.28877-4.56783h0c7.0486,0,12.23649-2.48077,12.23649,4.56783V56.31876A12.76261,12.76261,0,0,1,50.31957,69.08137Z" fill="#f98bd5"/><circle cx="56.10263" cy="44.98236" r="1.39591" fill="#4e0dd1"/><circle cx="44.53649" cy="44.98236" r="1.39591" fill="#4e0dd1"/><path d="M46.98468,55.71919h7.722a0,0,0,0,1,0,0v.45967a3.861,3.861,0,0,1-3.861,3.861h0a3.861,3.861,0,0,1-3.861-3.861v-.45967A0,0,0,0,1,46.98468,55.71919Z" fill="#fff"/><path d="M50,3.64648A46.35321,46.35321,0,0,1,80.923,84.52954l-.06225.0564-.06812.05481-.06543.05786c-.64014.56726-1.23291,1.06372-1.81152,1.51782l-.85962.6792A46.36438,46.36438,0,0,1,21.822,86.80847L21.3454,86.431c-.58667-.46484-1.08935-.87866-1.53637-1.26514l-.04077-.03491-.03345-.02734-.05127-.04383c-.0437-.03759-.0874-.075-.13232-.1123A46.35248,46.35248,0,0,1,50,3.64648M50,0A49.999,49.999,0,0,0,17.19086,87.72742c.08033.06567.15308.13134.2334.19714.54029.467,1.095.91968,1.657,1.36487v.00732a50.0056,50.0056,0,0,0,62.0857-.20434v-.00733c.679-.53283,1.33569-1.08764,1.97827-1.65686.07275-.05847.14575-.12414.219-.18982A49.99972,49.99972,0,0,0,50,0Z" fill="#7e51ed"/><path d="M62.49349,25.41778a17.23559,17.23559,0,0,0-3.43361-6.805,13.236,13.236,0,0,0-6.85373-4.44035,11.71844,11.71844,0,0,0-5.73077,0c-5.01146,1.26463-9.0079,5.7841-10.3753,11.61131a29.00248,29.00248,0,0,0,22.16278,6.30513l.248-.03493a1.84588,1.84588,0,0,1,1.90724,2.02065h0c0,2.88819,1.96422,5.23026,4.38766,5.23026V25.41778Z" fill="#a4247b"/><path d="M0,.00007v100H99.99994v-100ZM80.89622,84.48853c-.06736.06081-.13507.12166-.20279.17575-.59483.52725-1.2032,1.04095-1.83189,1.53439v.00677a46.309,46.309,0,0,1-57.49612.18929V86.388c-.52069-.41231-1.03427-.83144-1.53465-1.264-.07449-.06085-.14185-.12166-.21634-.18252a46.30244,46.30244,0,1,1,61.28179-.45289Z" fill="#7e51ed"/></svg>